<?xml version="1.0" encoding="UTF-8" standalone="no"?> <svg height="610pt" viewBox="-19 -47 610.66912 610" width="610pt" xmlns="http://www.w3.org/2000/svg" stroke="#002b49" stroke-width="0.5"  fill="#ae7a67"><path d="m187.191406 51.847656h-.039062c-28.546875.007813-51.675782 23.15625-51.667969 51.703125.011719 28.542969 23.160156 51.675781 51.703125 51.667969h.039062c18.523438.082031 35.675782-9.75 44.960938-25.785156 9.285156-16.03125 9.277344-35.804688-.015625-51.832032-9.296875-16.023437-26.453125-25.847656-44.980469-25.75zm20.707032 72.296875c-5.476563 5.496094-12.929688 8.582031-20.6875 8.570313h-.023438c-16.117188-.007813-29.191406-13.046875-29.246094-29.164063.007813-16.136719 13.097656-29.214843 29.234375-29.203125h.019531c16.121094 0 29.203126 13.039063 29.25 29.164063.023438 7.742187-3.050781 15.175781-8.546874 20.632812zm0 0"/><path d="m433.863281 90.257812h-16.042969c-9.304687-7.816406-21.066406-12.097656-33.21875-12.089843h-.039062c-28.542969.011719-51.671875 23.15625-51.664062 51.699219.011718 28.542968 23.160156 51.671874 51.703124 51.664062h.035157c18.808593-.015625 36.125-10.21875 45.257812-26.65625h3.96875c11.589844.070312 22.332031-6.074219 28.148438-16.097656 5.816406-10.023438 5.816406-22.394532 0-32.421875-5.816407-10.027344-16.558594-16.167969-28.148438-16.097657zm-28.554687 60.203126c-5.476563 5.503906-12.921875 8.589843-20.6875 8.570312h-.023438c-16.117187 0-29.199218-13.042969-29.246094-29.160156.007813-16.136719 13.097657-29.210938 29.230469-29.203125h.023438c16.121093 0 29.199219 13.042969 29.25 29.160156.023437 7.742187-3.054688 15.175781-8.546875 20.632813zm31-18.40625c.03125-.746094.054687-1.488282.054687-2.246094-.003906-5.808594-.992187-11.578125-2.925781-17.054688h.429688c4.941406 0 9.113281 3.671875 9.730468 8.574219.617188 4.898437-2.503906 9.496094-7.289062 10.722656zm0 0"/><path d="m568.242188 138.460938c-16.996094-84.234376-77.894532-138.664063-155.144532-138.664063-40.394531 0-84.085937 15.527344-126.789062 44.980469-43.285156-30.769532-86.203125-46.359375-127.660156-46.359375-77.699219 0-138.335938 55.027343-154.480469 140.144531-23.578125 122.898438 51.074219 285.957031 271.003906 373.21875.195313.078125.390625.148438.589844.214844 6.726562 2.609375 14.179687 2.609375 20.90625 0 .226562-.070313.449219-.15625.667969-.246094 100.824218-40.855469 179.050781-100.75 226.210937-173.238281 41.488281-63.761719 57.371094-134.78125 44.710937-199.976563-.003906-.019531-.007812-.050781-.015624-.074218zm-414.925782 279.820312-6.527344-117.902344c-.332031-5.960937-5.265624-10.625-11.230468-10.625h-.011719l-17.546875.015625-.027344-57.25c.039063-23.574219 19.148438-42.675781 42.726563-42.695312l53.558593-.03125h.027344c14.203125.023437 27.476563 7.089843 35.425782 18.867187.316406.460938.609374.949219.910156 1.429688-5.058594 12.667968-3.5 27.023437 4.167968 38.3125 7.660157 11.289062 20.425782 18.03125 34.070313 18.003906h.027344c22.125.003906 40.289062-17.5 41.101562-39.605469.46875-.410156.9375-.820312 1.421875-1.210937 7.550782-6.125 16.976563-9.460938 26.699219-9.441406l53.558594-.035157h.027343c23.558594 0 42.679688 19.0625 42.757813 42.621094l.023437 44.09375-17.558593.011719c-5.964844.003906-10.890625 4.667968-11.222657 10.625l-5.792968 103.335937c-21.15625 16.386719-43.585938 31.046875-67.085938 43.855469l-4.691406-61.136719h.574219c6.214843 0 11.253906-5.042969 11.25-11.257812l-.027344-46.761719c-.097656-35.609375-28.988281-64.429688-64.597656-64.4375h-.050781l-12.960938.039062c-35.605469.089844-64.441406 28.925782-64.53125 64.53125l.03125 46.761719c-.011719 4.363281 2.523438 8.339844 6.488281 10.167969l-4.195312 62.898438c-23.398438-12.542969-45.734375-26.972657-66.789063-43.140626 0-.015624 0-.03125 0-.039062zm135.539063-211.609375h.007812c10.28125-.003906 18.632813 8.3125 18.667969 18.601563-.007812 10.292968-8.359375 18.632812-18.652344 18.621093h-.011718c-6.6875.058594-12.894532-3.476562-16.253907-9.253906-3.359375-5.78125-3.363281-12.921875-.003906-18.703125 3.355469-5.785156 9.554687-9.324219 16.246094-9.269531zm39.175781 225.015625 3.097656 40.265625c-2.195312 1.085937-4.402344 2.164063-6.613281 3.234375zm-81.246094-32.074219h.398438l6.808594 78.679688c-4.082032-1.867188-8.105469-3.765625-12.070313-5.699219zm42.472656 91.140625c-.976562.324219-1.976562.558594-2.992187.703125-1.058594-.132812-2.097656-.371093-3.105469-.714843-1.921875-.765626-3.808594-1.546876-5.707031-2.324219l-8.738281-101.03125c-.503906-5.816407-5.371094-10.28125-11.210938-10.28125h-.007812l-17.191406.011719-.019532-35.507813c.09375-23.1875 18.882813-41.953125 42.070313-42.011719l12.964843-.039062h.027344c23.191406 0 42.003906 18.765625 42.078125 41.953125l.019531 35.507812-17.1875.011719c-5.859374.003906-10.734374 4.507812-11.203124 10.347656l-7.964844 98.417969c-3.914063 1.679687-7.867188 3.328125-11.839844 4.957031zm215.429688-164.507812c-17.222656 26.136718-37.773438 49.921875-61.136719 70.75l4.011719-71.664063 18.179688-.011719c6.207031-.007812 11.238281-5.039062 11.238281-11.25l-.027344-55.339843c-.09375-35.980469-29.28125-65.101563-65.257813-65.117188h-.046874l-53.554688.039063c-12.140625.03125-24.035156 3.445312-34.34375 9.855468-7.527344-12.023437-20.707031-19.320312-34.890625-19.328124h-.03125c-8.496094 0-16.78125 2.636718-23.707031 7.554687-12.363282-15.429687-31.058594-24.421875-50.835938-24.441406h-.046875l-53.554687.039062c-35.992188.039063-65.167969 29.207031-65.210938 65.203125l.035156 68.496094c0 6.210938 5.03125 11.25 11.246094 11.25h.007813l18.148437-.011719 4.785156 86.410157c-88.992187-79.703126-118.585937-176.929688-103.425781-255.898438 6.988281-36.839844 23.164063-67.710938 46.785157-89.296875 23.324218-21.304687 52.925781-32.570313 85.59375-32.570313 38.621093 0 79.28125 15.722657 120.839843 46.730469 3.945313 2.941407 9.351563 2.976563 13.335938.085938 40.949219-29.726563 82.539062-45.433594 120.269531-45.433594 32.589844 0 62.234375 11.214844 85.722656 32.4375 23.65625 21.375 40.035156 51.847656 47.363282 88.136719 11.523437 59.425781-3.214844 124.542968-41.492188 183.375zm0 0"/></svg>